<?xml version="1.0" encoding="iso-8859-1"?>
<!-- Generator: Adobe Illustrator 19.0.0, SVG Export Plug-In . SVG Version: 6.00 Build 0)  -->
<svg xmlns="http://www.w3.org/2000/svg" xmlns:xlink="http://www.w3.org/1999/xlink" version="1.1" id="Capa_1" x="0px" y="0px" viewBox="0 0 60 60" style="enable-background:new 0 0 60 60;" xml:space="preserve" width="512px" height="512px">
<g>
	<path d="M56.008,14H31.992h-28C1.791,14,0,15.791,0,17.992v24.016C0,44.209,1.791,46,3.992,46h28h24.016   C58.209,46,60,44.209,60,42.008V17.992C60,15.791,58.209,14,56.008,14z M28.553,44H3.992C2.894,44,2,43.106,2,42.008V17.992   C2,16.894,2.894,16,3.992,16h24.561C28.211,16.589,28,17.263,28,17.992v24.016C28,42.737,28.211,43.411,28.553,44z M42,33   c0,0.553-0.448,1-1,1s-1-0.447-1-1v-6c0-0.553,0.448-1,1-1s1,0.447,1,1V33z M45,33c0,0.553-0.448,1-1,1s-1-0.447-1-1v-6   c0-0.553,0.448-1,1-1s1,0.447,1,1V33z M48,33c0,0.553-0.448,1-1,1s-1-0.447-1-1v-6c0-0.553,0.448-1,1-1s1,0.447,1,1V33z" fill="#D80027"/>
</g>
<g>
</g>
<g>
</g>
<g>
</g>
<g>
</g>
<g>
</g>
<g>
</g>
<g>
</g>
<g>
</g>
<g>
</g>
<g>
</g>
<g>
</g>
<g>
</g>
<g>
</g>
<g>
</g>
<g>
</g>
</svg>
